<svg width="32" height="32" viewBox="0 0 32 32" fill="none" xmlns="http://www.w3.org/2000/svg">
<rect width="10" height="14" fill="black" fill-opacity="0" transform="translate(6 2) scale(2)"/>
<rect x="16" y="2" width="10" height="10" fill="#87939A"/>
<path d="M14 10V2L6 10H14Z" fill="#87939A"/>
<rect x="6" y="12" width="20" height="18" fill="#87939A"/>
<path d="M16 24L32 16V18.67L16 24Z" fill="#A91E3B"/>
<path d="M16 24L32 18.67V21.34L16 24Z" fill="#460075"/>
<path d="M32 24V21.33L16 24H32Z" fill="#6787C5"/>
<path d="M32 24H16L32 26.67V24Z" fill="#7ABC42"/>
<path d="M16 24L32 26.67V29.34L16 24Z" fill="#EBE820"/>
<path d="M16 24L32 29.33V32L16 24Z" fill="#EAAA20"/>
</svg>
