<svg width="16" height="16" viewBox="0 0 16 16" fill="none" xmlns="http://www.w3.org/2000/svg">
<rect width="10" height="14" fill="black" fill-opacity="0" transform="translate(3 1)"/>
<rect x="8" y="1" width="5" height="5" fill="#87939A"/>
<path d="M7 5V1L3 5H7Z" fill="#87939A"/>
<rect x="3" y="6" width="10" height="9" fill="#87939A"/>
<path d="M8 12L16 8V9.335L8 12Z" fill="#A91E3B"/>
<path d="M8 12L16 9.33502V10.67L8 12Z" fill="#460075"/>
<path d="M16 12V10.665L8 12H16Z" fill="#6787C5"/>
<path d="M16 12H8L16 13.335V12Z" fill="#7ABC42"/>
<path d="M8 12L16 13.335V14.67L8 12Z" fill="#EBE820"/>
<path d="M8 12L16 14.665V16L8 12Z" fill="#EAAA20"/>
</svg>
