<svg width="48" height="48" viewBox="0 0 48 48" fill="none" xmlns="http://www.w3.org/2000/svg">
<g clip-path="url(#clip0)">
<rect width="10" height="14" fill="black" fill-opacity="0" transform="translate(9 3) scale(3)"/>
<rect x="24" y="3" width="15" height="15" fill="#AEB9C0"/>
<path d="M21 15V3L9 15H21Z" fill="#AEB9C0"/>
<rect x="9" y="18" width="30" height="27" fill="#AEB9C0"/>
<rect width="16" height="13" fill="black" fill-opacity="0" transform="translate(0 24) scale(3)"/>
<rect width="5" height="8" fill="black" fill-opacity="0" transform="translate(33 24) scale(3)"/>
<path fill-rule="evenodd" clip-rule="evenodd" d="M41.1631 24C39.4787 24.6196 37.8527 26.4281 36.2851 29.4254C33.9336 33.9214 30.8966 40.3104 35.0786 45.3688C37.0133 47.709 40.2077 49.0902 44.3999 46.9027C47.7677 45.1454 48.7043 40.1024 47.4952 37.7326C45.0011 32.8442 42.4708 31.6385 41.7932 28.6069C41.3415 26.5859 41.1314 25.0502 41.1631 24Z" fill="#460075"/>
<path d="M9.17432 38.3965L15.5933 40.9907V43.0005L7.20557 39.1143V37.6172L15.5933 33.7412V35.751L9.17432 38.3965ZM18.2285 32.9414C18.2285 32.0459 18.5122 31.3076 19.0796 30.7266C19.6538 30.1455 20.3887 29.855 21.2842 29.855C22.1934 29.855 22.9282 30.1489 23.4888 30.7368C24.0562 31.3179 24.3398 32.0732 24.3398 33.0029V33.731C24.3398 34.6333 24.0527 35.3716 23.4785 35.9458C22.9111 36.5132 22.1865 36.7969 21.3047 36.7969C20.416 36.7969 19.6812 36.5132 19.1001 35.9458C18.519 35.3716 18.2285 34.6094 18.2285 33.6592V32.9414ZM19.6436 33.731C19.6436 34.2642 19.7939 34.7051 20.0947 35.0537C20.3955 35.3955 20.7988 35.5664 21.3047 35.5664C21.79 35.5664 22.1797 35.3989 22.4736 35.064C22.7744 34.729 22.9248 34.271 22.9248 33.6899V32.9414C22.9248 32.4082 22.7778 31.9673 22.4839 31.6187C22.1899 31.27 21.79 31.0957 21.2842 31.0957C20.7783 31.0957 20.3784 31.27 20.0845 31.6187C19.7905 31.9673 19.6436 32.4219 19.6436 32.9824V33.731ZM25.4985 41.3394C25.4985 40.4438 25.7822 39.709 26.3496 39.1348C26.9238 38.5537 27.6587 38.2632 28.5542 38.2632C29.4497 38.2632 30.1846 38.5503 30.7588 39.1245C31.333 39.6987 31.6201 40.4609 31.6201 41.4111V42.1392C31.6201 43.0347 31.333 43.7729 30.7588 44.354C30.1914 44.9282 29.4634 45.2153 28.5747 45.2153C27.686 45.2153 26.9512 44.9316 26.3701 44.3643C25.7891 43.79 25.4985 43.0278 25.4985 42.0776V41.3394ZM26.9136 42.1392C26.9136 42.6792 27.064 43.1235 27.3647 43.4722C27.6655 43.814 28.0688 43.9849 28.5747 43.9849C29.0669 43.9849 29.46 43.8174 29.7539 43.4824C30.0479 43.1406 30.1948 42.6792 30.1948 42.0981V41.3394C30.1948 40.7993 30.0444 40.3584 29.7437 40.0166C29.4497 39.6748 29.0532 39.5039 28.5542 39.5039C28.0688 39.5039 27.6724 39.6748 27.3647 40.0166C27.064 40.3516 26.9136 40.8062 26.9136 41.3804V42.1392ZM21.7354 43.8721L20.6587 43.1953L27.9492 31.5264L29.0259 32.2031L21.7354 43.8721Z" fill="black"/>
</g>
<defs>
<clipPath id="clip0">
<rect width="16" height="16" fill="white" transform="scale(3)"/>
</clipPath>
</defs>
</svg>
