<svg width="32" height="32" viewBox="0 0 32 32" fill="none" xmlns="http://www.w3.org/2000/svg">
<g clip-path="url(#clip0)">
<rect width="10" height="14" fill="black" fill-opacity="0" transform="translate(6 2) scale(2)"/>
<rect x="16" y="2" width="10" height="10" fill="#AEB9C0"/>
<path d="M14 10V2L6 10H14Z" fill="#AEB9C0"/>
<rect x="6" y="12" width="20" height="18" fill="#AEB9C0"/>
<rect width="16" height="13" fill="black" fill-opacity="0" transform="translate(0 16) scale(2)"/>
<rect width="5" height="8" fill="black" fill-opacity="0" transform="translate(22 16) scale(2)"/>
<path fill-rule="evenodd" clip-rule="evenodd" d="M27.4421 16C26.3191 16.4131 25.2351 17.6187 24.19 19.617C22.6224 22.6143 20.5978 26.8736 23.3857 30.2459C24.6755 31.806 26.8051 32.7268 29.5999 31.2685C31.8451 30.097 32.4695 26.7349 31.6635 25.1551C30.0008 21.8961 28.3138 21.0923 27.8621 19.0713C27.561 17.7239 27.421 16.7002 27.4421 16Z" fill="#460075"/>
<path d="M6.11621 25.5977L10.3955 27.3271V28.667L4.80371 26.0762V25.0781L10.3955 22.4941V23.834L6.11621 25.5977ZM12.1523 21.9609C12.1523 21.3639 12.3415 20.8717 12.7197 20.4844C13.1025 20.097 13.5924 19.9033 14.1895 19.9033C14.7956 19.9033 15.2855 20.0993 15.6592 20.4912C16.0374 20.8786 16.2266 21.3822 16.2266 22.002V22.4873C16.2266 23.0889 16.0352 23.5811 15.6523 23.9639C15.2741 24.3421 14.791 24.5312 14.2031 24.5312C13.6107 24.5312 13.1208 24.3421 12.7334 23.9639C12.346 23.5811 12.1523 23.0729 12.1523 22.4395V21.9609ZM13.0957 22.4873C13.0957 22.8428 13.196 23.1367 13.3965 23.3691C13.597 23.597 13.8659 23.7109 14.2031 23.7109C14.5267 23.7109 14.7865 23.5993 14.9824 23.376C15.1829 23.1527 15.2832 22.8473 15.2832 22.46V21.9609C15.2832 21.6055 15.1852 21.3115 14.9893 21.0791C14.7933 20.8467 14.5267 20.7305 14.1895 20.7305C13.8522 20.7305 13.5856 20.8467 13.3896 21.0791C13.1937 21.3115 13.0957 21.6146 13.0957 21.9883V22.4873ZM16.999 27.5596C16.999 26.9626 17.1882 26.4727 17.5664 26.0898C17.9492 25.7025 18.4391 25.5088 19.0361 25.5088C19.6331 25.5088 20.123 25.7002 20.5059 26.083C20.8887 26.4658 21.0801 26.974 21.0801 27.6074V28.0928C21.0801 28.6898 20.8887 29.182 20.5059 29.5693C20.1276 29.9521 19.6423 30.1436 19.0498 30.1436C18.4574 30.1436 17.9674 29.9544 17.5801 29.5762C17.1927 29.1934 16.999 28.6852 16.999 28.0518V27.5596ZM17.9424 28.0928C17.9424 28.4528 18.0426 28.749 18.2432 28.9814C18.4437 29.2093 18.7126 29.3232 19.0498 29.3232C19.3779 29.3232 19.64 29.2116 19.8359 28.9883C20.0319 28.7604 20.1299 28.4528 20.1299 28.0654V27.5596C20.1299 27.1995 20.0296 26.9056 19.8291 26.6777C19.6331 26.4499 19.3688 26.3359 19.0361 26.3359C18.7126 26.3359 18.4482 26.4499 18.2432 26.6777C18.0426 26.901 17.9424 27.2041 17.9424 27.5869V28.0928ZM14.4902 29.248L13.7725 28.7969L18.6328 21.0176L19.3506 21.4688L14.4902 29.248Z" fill="black"/>
</g>
<defs>
<clipPath id="clip0">
<rect width="16" height="16" fill="white" transform="scale(2)"/>
</clipPath>
</defs>
</svg>
