<svg width="16" height="16" viewBox="0 0 16 16" fill="none" xmlns="http://www.w3.org/2000/svg">
<g clip-path="url(#clip0)">
<rect width="10" height="14" fill="black" fill-opacity="0" transform="translate(3 1)"/>
<rect x="8" y="1" width="5" height="5" fill="#87939A"/>
<path d="M7 5V1L3 5H7Z" fill="#87939A"/>
<rect x="3" y="6" width="10" height="9" fill="#87939A"/>
<rect width="16" height="13" fill="black" fill-opacity="0" transform="translate(0 8)"/>
<rect width="5" height="8" fill="black" fill-opacity="0" transform="translate(11 8)"/>
<path fill-rule="evenodd" clip-rule="evenodd" d="M13.721 8C13.1596 8.20654 12.6176 8.80936 12.095 9.80848C11.3112 11.3071 10.2989 13.4368 11.6929 15.1229C12.3378 15.903 13.4026 16.3634 14.8 15.6342C15.9226 15.0485 16.2348 13.3675 15.8317 12.5775C15.0004 10.9481 14.1569 10.5462 13.9311 9.53564C13.7805 8.86196 13.7105 8.35008 13.721 8Z" fill="#460075"/>
<path d="M3.05811 12.7988L5.19775 13.6636V14.3335L2.40186 13.0381V12.5391L5.19775 11.2471V11.917L3.05811 12.7988ZM6.07617 10.9805C6.07617 10.682 6.17074 10.4359 6.35986 10.2422C6.55127 10.0485 6.79622 9.95166 7.09473 9.95166C7.39779 9.95166 7.64274 10.0496 7.82959 10.2456C8.01872 10.4393 8.11328 10.6911 8.11328 11.001V11.2437C8.11328 11.5444 8.01758 11.7905 7.82617 11.9819C7.63704 12.1711 7.39551 12.2656 7.10156 12.2656C6.80534 12.2656 6.56038 12.1711 6.3667 11.9819C6.17301 11.7905 6.07617 11.5365 6.07617 11.2197V10.9805ZM6.54785 11.2437C6.54785 11.4214 6.59798 11.5684 6.69824 11.6846C6.7985 11.7985 6.93294 11.8555 7.10156 11.8555C7.26335 11.8555 7.39323 11.7996 7.49121 11.688C7.59147 11.5763 7.6416 11.4237 7.6416 11.23V10.9805C7.6416 10.8027 7.59261 10.6558 7.49463 10.5396C7.39665 10.4233 7.26335 10.3652 7.09473 10.3652C6.92611 10.3652 6.79281 10.4233 6.69482 10.5396C6.59684 10.6558 6.54785 10.8073 6.54785 10.9941V11.2437ZM8.49951 13.7798C8.49951 13.4813 8.59408 13.2363 8.7832 13.0449C8.97461 12.8512 9.21956 12.7544 9.51807 12.7544C9.81657 12.7544 10.0615 12.8501 10.2529 13.0415C10.4443 13.2329 10.54 13.487 10.54 13.8037V14.0464C10.54 14.3449 10.4443 14.591 10.2529 14.7847C10.0638 14.9761 9.82113 15.0718 9.5249 15.0718C9.22868 15.0718 8.98372 14.9772 8.79004 14.7881C8.59635 14.5967 8.49951 14.3426 8.49951 14.0259V13.7798ZM8.97119 14.0464C8.97119 14.2264 9.02132 14.3745 9.12158 14.4907C9.22184 14.6047 9.35628 14.6616 9.5249 14.6616C9.68896 14.6616 9.81999 14.6058 9.91797 14.4941C10.016 14.3802 10.0649 14.2264 10.0649 14.0327V13.7798C10.0649 13.5998 10.0148 13.4528 9.91455 13.3389C9.81657 13.2249 9.68441 13.168 9.51807 13.168C9.35628 13.168 9.22412 13.2249 9.12158 13.3389C9.02132 13.4505 8.97119 13.6021 8.97119 13.7935V14.0464ZM7.24512 14.624L6.88623 14.3984L9.31641 10.5088L9.67529 10.7344L7.24512 14.624Z" fill="black"/>
</g>
<defs>
<clipPath id="clip0">
<rect width="16" height="16" fill="white"/>
</clipPath>
</defs>
</svg>
