<svg width="32" height="32" viewBox="0 0 32 32" fill="none" xmlns="http://www.w3.org/2000/svg">
<rect width="10" height="14" fill="black" fill-opacity="0" transform="translate(6 2) scale(2)"/>
<rect x="16" y="2" width="10" height="10" fill="#AEB9C0"/>
<path d="M14 10V2L6 10H14Z" fill="#AEB9C0"/>
<rect x="6" y="12" width="20" height="18" fill="#AEB9C0"/>
<path d="M32 24L16 16V18.67L32 24Z" fill="#A91E3B"/>
<path d="M32 24L16 18.67V21.34L32 24Z" fill="#460075"/>
<path d="M16 24V21.33L32 24H16Z" fill="#6787C5"/>
<path d="M16 24H32L16 26.67V24Z" fill="#7ABC42"/>
<path d="M32 24L16 26.67V29.34L32 24Z" fill="#EBE820"/>
<path d="M32 24L16 29.33V32L32 24Z" fill="#EAAA20"/>
</svg>
