<svg width="48" height="48" viewBox="0 0 48 48" fill="none" xmlns="http://www.w3.org/2000/svg">
<rect width="10" height="14" fill="black" fill-opacity="0" transform="translate(9 3) scale(3)"/>
<rect x="24" y="3" width="15" height="15" fill="#87939A"/>
<path d="M21 15V3L9 15H21Z" fill="#87939A"/>
<rect x="9" y="18" width="30" height="27" fill="#87939A"/>
<path d="M48 36L24 24V28.005L48 36Z" fill="#A91E3B"/>
<path d="M48 36.0001L24 28.0051V32.0101L48 36.0001Z" fill="#460075"/>
<path d="M24 36V31.995L48 36H24Z" fill="#6787C5"/>
<path d="M24 36H48L24 40.005V36Z" fill="#7ABC42"/>
<path d="M48 36L24 40.005V44.01L48 36Z" fill="#EBE820"/>
<path d="M48 36L24 43.995V48L48 36Z" fill="#EAAA20"/>
</svg>
