<svg width="48" height="48" viewBox="0 0 48 48" fill="none" xmlns="http://www.w3.org/2000/svg">
<circle cx="24" cy="24" r="21" fill="#460075"/>
<path d="M23.0918 31.7021C22.3691 32.7373 21.3584 33.5137 20.0596 34.0312C18.7705 34.5391 17.2666 34.793 15.5479 34.793C13.8096 34.793 12.2666 34.3877 10.9189 33.5771C9.57129 32.7568 8.52637 31.5947 7.78418 30.0908C7.05176 28.5869 6.67578 26.8438 6.65625 24.8613V23.001C6.65625 19.7881 7.40332 17.2979 8.89746 15.5303C10.4014 13.7627 12.5107 12.8789 15.2256 12.8789C17.4521 12.8789 19.2441 13.4502 20.6016 14.5928C21.959 15.7256 22.7891 17.3369 23.0918 19.4268H20.2793C19.752 16.6045 18.0723 15.1934 15.2402 15.1934C13.3555 15.1934 11.9248 15.8574 10.9482 17.1855C9.98145 18.5039 9.49316 20.418 9.4834 22.9277V24.6709C9.4834 27.0635 10.0303 28.9678 11.124 30.3838C12.2178 31.79 13.6973 32.4932 15.5625 32.4932C16.6172 32.4932 17.54 32.376 18.3311 32.1416C19.1221 31.9072 19.7764 31.5117 20.2939 30.9551V26.165H15.3574V23.8799H23.0918V31.7021ZM34.0781 24.9932C31.666 24.2998 29.9082 23.4502 28.8047 22.4443C27.7109 21.4287 27.1641 20.1787 27.1641 18.6943C27.1641 17.0146 27.833 15.6279 29.1709 14.5342C30.5186 13.4307 32.2666 12.8789 34.415 12.8789C35.8799 12.8789 37.1836 13.1621 38.3262 13.7285C39.4785 14.2949 40.3672 15.0762 40.9922 16.0723C41.627 17.0684 41.9443 18.1572 41.9443 19.3389H39.1172C39.1172 18.0498 38.707 17.0391 37.8867 16.3066C37.0664 15.5645 35.9092 15.1934 34.415 15.1934C33.0283 15.1934 31.9443 15.501 31.1631 16.1162C30.3916 16.7217 30.0059 17.5664 30.0059 18.6504C30.0059 19.5195 30.3721 20.2568 31.1045 20.8623C31.8467 21.458 33.1016 22.0049 34.8691 22.5029C36.6465 23.001 38.0332 23.5527 39.0293 24.1582C40.0352 24.7539 40.7773 25.4521 41.2559 26.2529C41.7441 27.0537 41.9883 27.9961 41.9883 29.0801C41.9883 30.8086 41.3145 32.1953 39.9668 33.2402C38.6191 34.2754 36.8174 34.793 34.5615 34.793C33.0967 34.793 31.7295 34.5146 30.46 33.958C29.1904 33.3916 28.209 32.6201 27.5156 31.6436C26.832 30.667 26.4902 29.5586 26.4902 28.3184H29.3174C29.3174 29.6074 29.791 30.6279 30.7383 31.3799C31.6953 32.1221 32.9697 32.4932 34.5615 32.4932C36.0459 32.4932 37.1836 32.1904 37.9746 31.585C38.7656 30.9795 39.1611 30.1543 39.1611 29.1094C39.1611 28.0645 38.7949 27.2588 38.0625 26.6924C37.3301 26.1162 36.002 25.5498 34.0781 24.9932Z" fill="#C4C4C4"/>
</svg>
