<svg width="32" height="32" viewBox="0 0 32 32" fill="none" xmlns="http://www.w3.org/2000/svg">
<g clip-path="url(#clip0)">
<circle cx="16" cy="16" r="14" fill="#460075"/>
<path d="M14.6484 21.1348C14.1667 21.8249 13.4928 22.3424 12.627 22.6875C11.7676 23.026 10.765 23.1953 9.61914 23.1953C8.46029 23.1953 7.43164 22.9251 6.5332 22.3848C5.63477 21.8379 4.93815 21.0632 4.44336 20.0605C3.95508 19.0579 3.70443 17.8958 3.69141 16.5742V15.334C3.69141 13.1921 4.18945 11.5319 5.18555 10.3535C6.18815 9.17513 7.5944 8.58594 9.4043 8.58594C10.8887 8.58594 12.0833 8.9668 12.9883 9.72852C13.8932 10.4837 14.4466 11.5579 14.6484 12.9512H12.7734C12.4219 11.0697 11.3021 10.1289 9.41406 10.1289C8.15755 10.1289 7.20378 10.5716 6.55273 11.457C5.9082 12.3359 5.58268 13.612 5.57617 15.2852V16.4473C5.57617 18.0423 5.94076 19.3118 6.66992 20.2559C7.39909 21.1934 8.38542 21.6621 9.62891 21.6621C10.332 21.6621 10.9473 21.584 11.4746 21.4277C12.002 21.2715 12.4382 21.0078 12.7832 20.6367V17.4434H9.49219V15.9199H14.6484V21.1348ZM25.8203 16.4277H19.6582V21.4668H26.8164V23H17.7832V8.78125H26.7188V10.3242H19.6582V14.8945H25.8203V16.4277Z" fill="#C4C4C4"/>
</g>
<defs>
<clipPath id="clip0">
<rect width="16" height="16" fill="white" transform="scale(2)"/>
</clipPath>
</defs>
</svg>
