<svg width="48" height="48" viewBox="0 0 48 48" fill="none" xmlns="http://www.w3.org/2000/svg">
<g clip-path="url(#clip0)">
<circle cx="24" cy="24" r="21" fill="#460075"/>
<path d="M21.9727 31.7021C21.25 32.7373 20.2393 33.5137 18.9404 34.0312C17.6514 34.5391 16.1475 34.793 14.4287 34.793C12.6904 34.793 11.1475 34.3877 9.7998 33.5771C8.45215 32.7568 7.40723 31.5947 6.66504 30.0908C5.93262 28.5869 5.55664 26.8438 5.53711 24.8613V23.001C5.53711 19.7881 6.28418 17.2979 7.77832 15.5303C9.28223 13.7627 11.3916 12.8789 14.1064 12.8789C16.333 12.8789 18.125 13.4502 19.4824 14.5928C20.8398 15.7256 21.6699 17.3369 21.9727 19.4268H19.1602C18.6328 16.6045 16.9531 15.1934 14.1211 15.1934C12.2363 15.1934 10.8057 15.8574 9.8291 17.1855C8.8623 18.5039 8.37402 20.418 8.36426 22.9277V24.6709C8.36426 27.0635 8.91113 28.9678 10.0049 30.3838C11.0986 31.79 12.5781 32.4932 14.4434 32.4932C15.498 32.4932 16.4209 32.376 17.2119 32.1416C18.0029 31.9072 18.6572 31.5117 19.1748 30.9551V26.165H14.2383V23.8799H21.9727V31.7021ZM38.7305 24.6416H29.4873V32.2002H40.2246V34.5H26.6748V13.1719H40.0781V15.4863H29.4873V22.3418H38.7305V24.6416Z" fill="#87939A"/>
</g>
<defs>
<clipPath id="clip0">
<rect width="16" height="16" fill="white" transform="scale(3)"/>
</clipPath>
</defs>
</svg>
