<svg width="16" height="16" viewBox="0 0 16 16" fill="none" xmlns="http://www.w3.org/2000/svg">
<circle cx="8" cy="8" r="7" fill="#460075"/>
<path d="M7.69727 10.5674C7.45638 10.9124 7.11947 11.1712 6.68652 11.3438C6.25684 11.513 5.75553 11.5977 5.18262 11.5977C4.60319 11.5977 4.08887 11.4626 3.63965 11.1924C3.19043 10.9189 2.84212 10.5316 2.59473 10.0303C2.35059 9.52897 2.22526 8.94792 2.21875 8.28711V7.66699C2.21875 6.59603 2.46777 5.76595 2.96582 5.17676C3.46712 4.58757 4.17025 4.29297 5.0752 4.29297C5.81738 4.29297 6.41471 4.4834 6.86719 4.86426C7.31966 5.24186 7.59635 5.77897 7.69727 6.47559H6.75977C6.58398 5.53483 6.02409 5.06445 5.08008 5.06445C4.45182 5.06445 3.97493 5.28581 3.64941 5.72852C3.32715 6.16797 3.16439 6.80599 3.16113 7.64258V8.22363C3.16113 9.02116 3.34342 9.65592 3.70801 10.1279C4.07259 10.5967 4.56576 10.8311 5.1875 10.8311C5.53906 10.8311 5.84668 10.792 6.11035 10.7139C6.37402 10.6357 6.59212 10.5039 6.76465 10.3184V8.72168H5.11914V7.95996H7.69727V10.5674ZM11.3594 8.33105C10.5553 8.09993 9.9694 7.81673 9.60156 7.48145C9.23698 7.1429 9.05469 6.72624 9.05469 6.23145C9.05469 5.67155 9.27767 5.20931 9.72363 4.84473C10.1729 4.47689 10.7555 4.29297 11.4717 4.29297C11.96 4.29297 12.3945 4.38737 12.7754 4.57617C13.1595 4.76497 13.4557 5.02539 13.6641 5.35742C13.8757 5.68945 13.9814 6.05241 13.9814 6.44629H13.0391C13.0391 6.0166 12.9023 5.67969 12.6289 5.43555C12.3555 5.18815 11.9697 5.06445 11.4717 5.06445C11.0094 5.06445 10.6481 5.16699 10.3877 5.37207C10.1305 5.57389 10.002 5.85547 10.002 6.2168C10.002 6.50651 10.124 6.75228 10.3682 6.9541C10.6156 7.15267 11.0339 7.33496 11.623 7.50098C12.2155 7.66699 12.6777 7.85091 13.0098 8.05273C13.3451 8.2513 13.5924 8.48405 13.752 8.75098C13.9147 9.0179 13.9961 9.33203 13.9961 9.69336C13.9961 10.2695 13.7715 10.7318 13.3223 11.0801C12.873 11.4251 12.2725 11.5977 11.5205 11.5977C11.0322 11.5977 10.5765 11.5049 10.1533 11.3193C9.73014 11.1305 9.40299 10.8734 9.17188 10.5479C8.94401 10.2223 8.83008 9.85286 8.83008 9.43945H9.77246C9.77246 9.86914 9.93034 10.2093 10.2461 10.46C10.5651 10.7074 10.9899 10.8311 11.5205 10.8311C12.0153 10.8311 12.3945 10.7301 12.6582 10.5283C12.9219 10.3265 13.0537 10.0514 13.0537 9.70312C13.0537 9.35482 12.9316 9.08626 12.6875 8.89746C12.4434 8.7054 12.0007 8.5166 11.3594 8.33105Z" fill="#C4C4C4"/>
</svg>
