<svg width="16" height="16" viewBox="0 0 16 16" fill="none" xmlns="http://www.w3.org/2000/svg">
<g clip-path="url(#clip0)">
<circle cx="8" cy="8" r="7" fill="#460075"/>
<path d="M7.32422 10.5674C7.08333 10.9124 6.74642 11.1712 6.31348 11.3438C5.88379 11.513 5.38249 11.5977 4.80957 11.5977C4.23014 11.5977 3.71582 11.4626 3.2666 11.1924C2.81738 10.9189 2.46908 10.5316 2.22168 10.0303C1.97754 9.52897 1.85221 8.94792 1.8457 8.28711V7.66699C1.8457 6.59603 2.09473 5.76595 2.59277 5.17676C3.09408 4.58757 3.7972 4.29297 4.70215 4.29297C5.44434 4.29297 6.04167 4.4834 6.49414 4.86426C6.94661 5.24186 7.22331 5.77897 7.32422 6.47559H6.38672C6.21094 5.53483 5.65104 5.06445 4.70703 5.06445C4.07878 5.06445 3.60189 5.28581 3.27637 5.72852C2.9541 6.16797 2.79134 6.80599 2.78809 7.64258V8.22363C2.78809 9.02116 2.97038 9.65592 3.33496 10.1279C3.69954 10.5967 4.19271 10.8311 4.81445 10.8311C5.16602 10.8311 5.47363 10.792 5.7373 10.7139C6.00098 10.6357 6.21908 10.5039 6.3916 10.3184V8.72168H4.74609V7.95996H7.32422V10.5674ZM12.9102 8.21387H9.8291V10.7334H13.4082V11.5H8.8916V4.39062H13.3594V5.16211H9.8291V7.44727H12.9102V8.21387Z" fill="#87939A"/>
</g>
<defs>
<clipPath id="clip0">
<rect width="16" height="16" fill="white"/>
</clipPath>
</defs>
</svg>
