<svg width="32" height="32" viewBox="0 0 32 32" fill="none" xmlns="http://www.w3.org/2000/svg">
<circle cx="16" cy="16" r="14" fill="#460075"/>
<path d="M15.3945 21.1348C14.9128 21.8249 14.2389 22.3424 13.373 22.6875C12.5137 23.026 11.5111 23.1953 10.3652 23.1953C9.20638 23.1953 8.17773 22.9251 7.2793 22.3848C6.38086 21.8379 5.68424 21.0632 5.18945 20.0605C4.70117 19.0579 4.45052 17.8958 4.4375 16.5742V15.334C4.4375 13.1921 4.93555 11.5319 5.93164 10.3535C6.93424 9.17513 8.34049 8.58594 10.1504 8.58594C11.6348 8.58594 12.8294 8.9668 13.7344 9.72852C14.6393 10.4837 15.1927 11.5579 15.3945 12.9512H13.5195C13.168 11.0697 12.0482 10.1289 10.1602 10.1289C8.90365 10.1289 7.94987 10.5716 7.29883 11.457C6.6543 12.3359 6.32878 13.612 6.32227 15.2852V16.4473C6.32227 18.0423 6.68685 19.3118 7.41602 20.2559C8.14518 21.1934 9.13151 21.6621 10.375 21.6621C11.0781 21.6621 11.6934 21.584 12.2207 21.4277C12.748 21.2715 13.1842 21.0078 13.5293 20.6367V17.4434H10.2383V15.9199H15.3945V21.1348ZM22.7188 16.6621C21.1107 16.1999 19.9388 15.6335 19.2031 14.9629C18.474 14.2858 18.1094 13.4525 18.1094 12.4629C18.1094 11.3431 18.5553 10.4186 19.4473 9.68945C20.3457 8.95378 21.5111 8.58594 22.9434 8.58594C23.9199 8.58594 24.7891 8.77474 25.5508 9.15234C26.319 9.52995 26.9115 10.0508 27.3281 10.7148C27.7513 11.3789 27.9629 12.1048 27.9629 12.8926H26.0781C26.0781 12.0332 25.8047 11.3594 25.2578 10.8711C24.7109 10.3763 23.9395 10.1289 22.9434 10.1289C22.0189 10.1289 21.2962 10.334 20.7754 10.7441C20.2611 11.1478 20.0039 11.7109 20.0039 12.4336C20.0039 13.013 20.248 13.5046 20.7363 13.9082C21.2311 14.3053 22.0677 14.6699 23.2461 15.002C24.431 15.334 25.3555 15.7018 26.0195 16.1055C26.6901 16.5026 27.1849 16.9681 27.5039 17.502C27.8294 18.0358 27.9922 18.6641 27.9922 19.3867C27.9922 20.5391 27.543 21.4635 26.6445 22.1602C25.7461 22.8503 24.5449 23.1953 23.041 23.1953C22.0645 23.1953 21.153 23.0098 20.3066 22.6387C19.4603 22.2611 18.806 21.7467 18.3438 21.0957C17.888 20.4447 17.6602 19.7057 17.6602 18.8789H19.5449C19.5449 19.7383 19.8607 20.4186 20.4922 20.9199C21.1302 21.4147 21.9798 21.6621 23.041 21.6621C24.0306 21.6621 24.7891 21.4603 25.3164 21.0566C25.8438 20.653 26.1074 20.1029 26.1074 19.4062C26.1074 18.7096 25.8633 18.1725 25.375 17.7949C24.8867 17.4108 24.0013 17.0332 22.7188 16.6621Z" fill="#AEB9C0"/>
</svg>
