<svg width="16" height="16" viewBox="0 0 16 16" fill="none" xmlns="http://www.w3.org/2000/svg">
<circle cx="8" cy="8" r="7" fill="#460075"/>
<path d="M7.93164 8.56348C6.80599 8.23991 5.98568 7.84342 5.4707 7.37402C4.96029 6.90007 4.70508 6.31673 4.70508 5.62402C4.70508 4.84017 5.01725 4.19303 5.6416 3.68262C6.27051 3.16764 7.08626 2.91016 8.08887 2.91016C8.77246 2.91016 9.38086 3.04232 9.91406 3.30664C10.4518 3.57096 10.8665 3.93555 11.1582 4.40039C11.4544 4.86523 11.6025 5.37337 11.6025 5.9248H10.2832C10.2832 5.32324 10.0918 4.85156 9.70898 4.50977C9.32617 4.16341 8.78613 3.99023 8.08887 3.99023C7.44173 3.99023 6.93587 4.13379 6.57129 4.4209C6.21126 4.70345 6.03125 5.09766 6.03125 5.60352C6.03125 6.00911 6.20215 6.35319 6.54395 6.63574C6.8903 6.91374 7.47591 7.16895 8.30078 7.40137C9.13021 7.63379 9.77734 7.89128 10.2422 8.17383C10.7116 8.45182 11.0579 8.77767 11.2812 9.15137C11.5091 9.52507 11.623 9.96484 11.623 10.4707C11.623 11.2773 11.3086 11.9245 10.6797 12.4121C10.0508 12.8952 9.20996 13.1367 8.15723 13.1367C7.47363 13.1367 6.83561 13.0068 6.24316 12.7471C5.65072 12.4827 5.19271 12.1227 4.86914 11.667C4.55013 11.2113 4.39062 10.694 4.39062 10.1152H5.70996C5.70996 10.7168 5.93099 11.193 6.37305 11.5439C6.81966 11.8903 7.41439 12.0635 8.15723 12.0635C8.84993 12.0635 9.38086 11.9222 9.75 11.6396C10.1191 11.3571 10.3037 10.972 10.3037 10.4844C10.3037 9.99674 10.1328 9.62077 9.79102 9.35645C9.44922 9.08757 8.82943 8.82324 7.93164 8.56348Z" fill="#AEB9C0"/>
</svg>
