<svg width="48" height="48" viewBox="0 0 48 48" fill="none" xmlns="http://www.w3.org/2000/svg">
<circle cx="24" cy="24" r="21" fill="#460075"/>
<path d="M23.7949 25.6904C20.418 24.7197 17.957 23.5303 16.4121 22.1221C14.8809 20.7002 14.1152 18.9502 14.1152 16.8721C14.1152 14.5205 15.0518 12.5791 16.9248 11.0479C18.8115 9.50293 21.2588 8.73047 24.2666 8.73047C26.3174 8.73047 28.1426 9.12695 29.7422 9.91992C31.3555 10.7129 32.5996 11.8066 33.4746 13.2012C34.3633 14.5957 34.8076 16.1201 34.8076 17.7744H30.8496C30.8496 15.9697 30.2754 14.5547 29.127 13.5293C27.9785 12.4902 26.3584 11.9707 24.2666 11.9707C22.3252 11.9707 20.8076 12.4014 19.7139 13.2627C18.6338 14.1104 18.0938 15.293 18.0938 16.8105C18.0938 18.0273 18.6064 19.0596 19.6318 19.9072C20.6709 20.7412 22.4277 21.5068 24.9023 22.2041C27.3906 22.9014 29.332 23.6738 30.7266 24.5215C32.1348 25.3555 33.1738 26.333 33.8438 27.4541C34.5273 28.5752 34.8691 29.8945 34.8691 31.4121C34.8691 33.832 33.9258 35.7734 32.0391 37.2363C30.1523 38.6855 27.6299 39.4102 24.4717 39.4102C22.4209 39.4102 20.5068 39.0205 18.7295 38.2412C16.9521 37.4482 15.5781 36.3682 14.6074 35.001C13.6504 33.6338 13.1719 32.082 13.1719 30.3457H17.1299C17.1299 32.1504 17.793 33.5791 19.1191 34.6318C20.459 35.6709 22.2432 36.1904 24.4717 36.1904C26.5498 36.1904 28.1426 35.7666 29.25 34.9189C30.3574 34.0713 30.9111 32.916 30.9111 31.4531C30.9111 29.9902 30.3984 28.8623 29.373 28.0693C28.3477 27.2627 26.4883 26.4697 23.7949 25.6904Z" fill="#87939A"/>
</svg>
