<svg width="32" height="32" viewBox="0 0 32 32" fill="none" xmlns="http://www.w3.org/2000/svg">
<circle cx="16" cy="16" r="14" fill="#460075"/>
<path d="M15.8633 17.127C13.612 16.4798 11.9714 15.6868 10.9414 14.748C9.92057 13.8001 9.41016 12.6335 9.41016 11.248C9.41016 9.68034 10.0345 8.38607 11.2832 7.36523C12.541 6.33529 14.1725 5.82031 16.1777 5.82031C17.5449 5.82031 18.7617 6.08464 19.8281 6.61328C20.9036 7.14193 21.7331 7.87109 22.3164 8.80078C22.9089 9.73047 23.2051 10.7467 23.2051 11.8496H20.5664C20.5664 10.6465 20.1836 9.70312 19.418 9.01953C18.6523 8.32682 17.5723 7.98047 16.1777 7.98047C14.8835 7.98047 13.8717 8.26758 13.1426 8.8418C12.4225 9.4069 12.0625 10.1953 12.0625 11.207C12.0625 12.0182 12.4043 12.7064 13.0879 13.2715C13.7806 13.8275 14.9518 14.3379 16.6016 14.8027C18.2604 15.2676 19.5547 15.7826 20.4844 16.3477C21.4232 16.9036 22.1159 17.5553 22.5625 18.3027C23.0182 19.0501 23.2461 19.9297 23.2461 20.9414C23.2461 22.5547 22.6172 23.849 21.3594 24.8242C20.1016 25.7904 18.4199 26.2734 16.3145 26.2734C14.9473 26.2734 13.6712 26.0137 12.4863 25.4941C11.3014 24.9655 10.3854 24.2454 9.73828 23.334C9.10026 22.4225 8.78125 21.388 8.78125 20.2305H11.4199C11.4199 21.4336 11.862 22.3861 12.7461 23.0879C13.6393 23.7806 14.8288 24.127 16.3145 24.127C17.6999 24.127 18.7617 23.8444 19.5 23.2793C20.2383 22.7142 20.6074 21.944 20.6074 20.9688C20.6074 19.9935 20.2656 19.2415 19.582 18.7129C18.8984 18.1751 17.6589 17.6465 15.8633 17.127Z" fill="#87939A"/>
</svg>
