<svg xmlns="http://www.w3.org/2000/svg" width="12" height="12" viewBox="0 0 12 12">
    <g fill="none" fill-rule="evenodd">
        <circle cx="4" cy="6" r="4" fill="#62B543" fill-opacity=".7"/>
        <path fill="#DB5860" d="M10,9 L12,9 L9.5,12 L7,9 L9,9 L9,0 L10,0 L10,9 Z" transform="matrix(1 0 0 -1 0 12)"/>
        <path fill="#231F20" fill-opacity=".7" d="M0.9974,2.8021 C0.9974,3.83569336 1.23855513,4.8771 2.5354,4.8771 C3.83224487,4.8771 4,3.4641 4,2.7921 C4,2.1061 3.90228271,0.7461 2.5244,0.7461 C1.14651729,0.7461 0.9974,1.76850664 0.9974,2.8021 Z M1,5 C1.008,5.074 1.00713333,6.074 0.9974,8 L0.0004,8 L0.0004,0.0001 L0.9974,0.0001 L0.9974,0.7461 C1.36693099,0.248766667 1.93993099,0.0001 2.7164,0.0001 C3.88110352,0.0001 5.0004,0.578186035 5.0004,2.8021 C5.0004,5.02601396 3.65454102,5.6231 2.7164,5.6231 C2.09097266,5.6231 1.51883932,5.4154 1,5 Z" transform="translate(3.25 4.5) scale(0.5)"/>
    </g>
</svg>
