<svg width="48" height="48" viewBox="0 0 48 48" fill="none" xmlns="http://www.w3.org/2000/svg">
<g clip-path="url(#clip0)">
<rect width="14" height="11" fill="black" fill-opacity="0" transform="translate(3 6) scale(3)"/>
<rect x="3" y="12" width="42" height="27" fill="#C4C4C4"/>
<rect x="3" y="6" width="15" height="6" fill="#C4C4C4"/>
<path d="M18 12H24L18 6V12Z" fill="#C4C4C4"/>
<rect width="5" height="8" fill="black" fill-opacity="0" transform="translate(33 24) scale(3)"/>
<path fill-rule="evenodd" clip-rule="evenodd" d="M41.1631 24C39.4787 24.6196 37.8527 26.4281 36.2851 29.4254C33.9336 33.9214 30.8966 40.3104 35.0786 45.3688C37.0133 47.709 40.2077 49.0902 44.3999 46.9027C47.7677 45.1454 48.7043 40.1024 47.4952 37.7326C45.0011 32.8442 42.4708 31.6385 41.7932 28.6069C41.3415 26.5859 41.1314 25.0502 41.1631 24Z" fill="#460075"/>
</g>
<defs>
<clipPath id="clip0">
<rect width="16" height="16" fill="white" transform="scale(3)"/>
</clipPath>
</defs>
</svg>
