<svg xmlns="http://www.w3.org/2000/svg" xmlns:xlink="http://www.w3.org/1999/xlink" width="40" height="40" viewBox="0 0 40 40">
  <defs>
    <polygon id="elixir-a" points="0 0 24 0 24 36 0 36"/>
    <polygon id="elixir-c" points="0 0 14.094 0 14.094 35.677 0 35.677"/>
    <polygon id="elixir-e" points=".281 .849 21 .849 21 35 .281 35"/>
  </defs>
  <g fill="none" fill-rule="evenodd" transform="translate(8 2)">
    <mask id="elixir-b" fill="#fff">
      <use xlink:href="#elixir-a"/>
    </mask>
    <path fill="#C1BACE" d="M24,24.3223 C24,30.7713 18.627,36.0003 12,36.0003 C5.373,36.0003 0,30.7713 0,24.3223 C0,18.3833 4.137,10.1453 6.428,6.3343 C10.245,-0.0177 13.031,0.0003 13.031,0.0003 C13.031,0.0003 12.227,3.6153 15.094,9.2143 C17.698,14.3013 24,18.0003 24,24.3223" mask="url(#elixir-b)"/>
    <mask id="elixir-d" fill="#fff">
      <use xlink:href="#elixir-c"/>
    </mask>
    <path fill="#C1BACE" d="M12.6768,20.4404 C13.3108,18.2004 11.7458,15.6404 12.2268,12.1184 C12.3728,11.0494 13.1098,9.1964 14.0938,6.9844 C12.4368,2.6744 13.0308,0.0004 13.0308,0.0004 C13.0308,0.0004 10.2448,-0.0176 6.4278,6.3344 C4.1368,10.1454 -0.0002,18.3834 -0.0002,24.3224 C-0.0002,29.8314 3.9188,34.4474 9.1928,35.6774 C9.1628,35.6624 9.1358,35.6454 9.1068,35.6294 C5.5848,33.7654 6.2118,30.2354 7.5628,27.9624 C9.1158,25.3514 11.5038,24.5874 12.6768,20.4404" mask="url(#elixir-d)"/>
    <path fill="#9F93C2" d="M7.5771,13.4541 C8.4041,17.6591 8.7591,21.8951 8.7591,21.8951 C8.7591,21.8951 10.8091,14.1961 11.2901,10.6741 C11.4371,9.5951 12.5461,8.3681 14.0941,7.1211 C13.4001,5.3541 13.0841,3.8551 12.9541,2.6961 C7.2421,6.9401 6.4131,7.5411 7.5771,13.4541"/>
    <g transform="translate(3 1)">
      <mask id="elixir-f" fill="#fff">
        <use xlink:href="#elixir-e"/>
      </mask>
      <path fill="#ADA4BE" d="M21,23.6152 C21,29.9022 15.627,35.0002 9,35.0002 C2.373,35.0002 0.281,30.1932 0.281,23.9062 C0.281,18.1152 1.074,14.3032 2.906,9.0352 C5.285,2.1942 7.895,0.8492 7.895,0.8492 C7.895,0.8492 7.352,3.6682 10.219,9.1262 C12.823,14.0872 21,17.0002 21,23.6152" mask="url(#elixir-f)"/>
    </g>
    <path fill="#988CBE" d="M13.0801 3.4468C13.0811 3.4508 13.0811 3.4538 13.0821 3.4578 13.0811 3.4538 13.0811 3.4508 13.0801 3.4468M12.9229 2.1025C12.9229 2.1075 12.9239 2.1135 12.9239 2.1195 12.9239 2.1135 12.9229 2.1075 12.9229 2.1025M13.1953 4.0645C13.1973 4.0735 13.1993 4.0825 13.2013 4.0915 13.1993 4.0825 13.1973 4.0735 13.1953 4.0645M12.9648 2.5967L12.9678 2.6197 12.9648 2.5967zM13 2.896C12.999 2.887 12.997 2.877 12.996 2.868 12.997 2.877 12.999 2.887 13 2.896M13.0361 3.1606L13.0361 3.1646 13.0361 3.1606zM13.1318 3.7412C13.1338 3.7522 13.1358 3.7632 13.1378 3.7742 13.1358 3.7632 13.1338 3.7522 13.1318 3.7412M13.9062 6.5664L13.9242 6.6134 13.9062 6.5664zM13.7686 6.168C13.7736 6.185 13.7796 6.201 13.7856 6.217 13.7796 6.201 13.7736 6.185 13.7686 6.168M13.3437 4.7192C13.3467 4.7302 13.3497 4.7402 13.3517 4.7512 13.3497 4.7402 13.3467 4.7302 13.3437 4.7192M12.8965 1.2646L12.8965 1.2466 12.8965 1.2646zM13.6504 5.8066C13.6514 5.8106 13.6534 5.8156 13.6544 5.8196 13.6534 5.8156 13.6514 5.8106 13.6504 5.8066M13.5391 5.4404C13.5411 5.4474 13.5431 5.4544 13.5451 5.4614 13.5431 5.4544 13.5411 5.4474 13.5391 5.4404M13.4346 5.0679L13.4466 5.1099 13.4346 5.0679zM12.9941.0283C12.9941.0303 12.9931.0313 12.9931.0343 12.9931.0323 12.9941.0293 12.9941.0283M12.9678.186C12.9678.189 12.9668.193 12.9668.196 12.9668.193 12.9678.189 12.9678.186M12.9775.1211L12.9775.1241 12.9775.1211zM12.9863.0684L12.9863.0724 12.9863.0684zM17.251 13.6479C17.295 13.2639 17.336 12.9229 17.377 12.6169 16.488 11.5249 15.674 10.4079 15.063 9.2139 14.661 8.4309 14.332 7.6859 14.063 6.9839 13.078 9.1969 12.342 11.0489 12.195 12.1189 11.715 15.6399 13.279 18.1999 12.646 20.4399 11.473 24.5879 9.085 25.3519 7.531 27.9629 6.18 30.2349 5.554 33.7659 9.074 35.6299 9.104 35.6459 9.131 35.6609 9.159 35.6769 9.756 35.8159 10.369 35.9129 10.997 35.9619 14.363 35.5519 17.242 33.4259 18.026 30.1609 19.551 23.8149 16.791 17.7369 17.251 13.6479M12.998.0063L12.998.0083 12.998.0063zM12.8994 1.063L12.8994 1.081 12.8994 1.063zM12.9092 1.8633C12.9092 1.8713 12.9102 1.8793 12.9102 1.8873 12.9102 1.8793 12.9092 1.8713 12.9092 1.8633M12.9004 1.6479C12.9014 1.6519 12.9014 1.6559 12.9014 1.6599 12.9014 1.6559 12.9014 1.6519 12.9004 1.6479M12.9131.7485C12.9121.7515 12.9121.7545 12.9121.7585 12.9121.7545 12.9121.7515 12.9131.7485M12.9229.6035C12.9219.6085 12.9219.6145 12.9219.6195 12.9219.6145 12.9219.6085 12.9229.6035M12.9561.271C12.9561.274 12.9561.278 12.9551.281 12.9561.278 12.9561.274 12.9561.271M12.9336.479C12.9336.482 12.9326.485 12.9326.488 12.9326.485 12.9336.482 12.9336.479"/>
    <path fill="#C1BACE" d="M12.1357,29.4902 C10.4127,29.4902 8.8747,29.3842 7.5027,29.1792 C6.4467,31.7902 7.6587,35.1892 10.3007,35.1892 C13.1267,35.1892 16.7317,32.8132 17.0687,29.0612 C17.0697,29.0482 17.0697,29.0352 17.0707,29.0222 C15.5997,29.3302 13.9527,29.4902 12.1357,29.4902"/>
    <path fill="#8475B1" d="M12.6768,20.4404 C13.3108,18.2004 11.7458,15.6404 12.2268,12.1184 C12.3088,11.5174 12.5778,10.6684 12.9728,9.6474 C10.3838,4.5024 10.8948,1.8494 10.8948,1.8494 C10.8948,1.8494 8.2848,3.1944 5.9058,10.0354 C4.0738,15.3034 3.2808,19.1154 3.2808,24.9064 C3.2808,30.1654 4.7448,34.3874 9.1028,35.6284 C5.5858,33.7624 6.2118,30.2344 7.5628,27.9624 C9.1158,25.3514 11.5038,24.5874 12.6768,20.4404"/>
    <path fill="#7C6CAC" d="M11.0176,4.1479 C7.0646,7.1769 6.5596,8.2879 7.5776,13.4539 C8.4046,17.6589 8.7586,21.8959 8.7586,21.8959 C8.7586,21.8959 10.8096,14.1959 11.2896,10.6739 C11.3776,10.0279 11.8106,9.3299 12.4746,8.6059 C11.6276,6.7359 11.2126,5.2469 11.0176,4.1479"/>
    <path fill="#988CBE" d="M3.2812,24.9063 C3.2812,22.3663 3.4332,20.2073 3.7602,18.1383 C3.3282,16.5653 3.1212,14.7743 3.0632,12.8553 C1.4242,16.5633 0.0002,20.8383 0.0002,24.3223 C0.0002,24.7343 0.0222,25.1413 0.0652,25.5423 C0.9182,26.5603 2.0432,27.3923 3.4822,28.0263 C3.3442,27.0423 3.2812,25.9963 3.2812,24.9063"/>
    <path fill="#7867A9" d="M23.9492,25.3926 C23.9762,25.0986 23.9932,24.8016 23.9982,24.5016 C23.9962,24.3946 23.9932,24.2886 23.9872,24.1846 L23.9872,24.1836 C23.9812,24.0796 23.9732,23.9756 23.9642,23.8726 C23.9642,23.8726 23.9642,23.8716 23.9632,23.8716 C23.9542,23.7696 23.9412,23.6676 23.9282,23.5676 L23.9282,23.5656 C23.6522,21.5426 22.5942,19.8776 21.2222,18.3736 C21.2202,18.3706 21.2172,18.3686 21.2152,18.3656 C21.1492,18.2936 21.0842,18.2236 21.0172,18.1526 C21.0112,18.1456 21.0062,18.1396 20.9992,18.1336 C20.9362,18.0666 20.8732,17.9996 20.8082,17.9336 C20.8002,17.9246 20.7912,17.9156 20.7832,17.9076 C20.7202,17.8436 20.6582,17.7796 20.5952,17.7156 C20.5852,17.7056 20.5742,17.6956 20.5642,17.6846 C20.5022,17.6226 20.4392,17.5606 20.3772,17.4996 C20.3662,17.4886 20.3542,17.4776 20.3442,17.4666 C20.2812,17.4056 20.2192,17.3446 20.1552,17.2846 C20.1432,17.2736 20.1332,17.2626 20.1212,17.2516 C20.0572,17.1906 19.9942,17.1296 19.9292,17.0696 C19.9192,17.0596 19.9072,17.0496 19.8962,17.0386 C19.8312,16.9766 19.7652,16.9156 19.6992,16.8546 C19.6902,16.8466 19.6802,16.8376 19.6722,16.8296 C19.6022,16.7656 19.5332,16.7016 19.4632,16.6376 C19.4572,16.6326 19.4522,16.6276 19.4462,16.6226 C19.3712,16.5546 19.2962,16.4866 19.2202,16.4186 C22.0912,22.3676 18.0832,24.4506 11.8592,24.4506 C7.1392,24.4506 4.7982,21.9256 3.7602,18.1386 C3.4332,20.2066 3.2812,22.3666 3.2812,24.9066 C3.2812,25.9966 3.3452,27.0416 3.4822,28.0266 C5.6622,28.9856 8.5642,29.4906 12.3482,29.4906 C17.8292,29.4906 21.7772,28.0476 23.9492,25.3926"/>
    <path fill="#7C6CAC" d="M5.2285,12.1187 C4.5585,14.2477 4.0755,16.1937 3.7595,18.2297 C5.7465,26.0827 11.8375,32.7857 18.8945,33.9437 C20.1035,33.1387 21.1495,32.1277 21.9755,30.9647 C14.5905,29.3427 7.3475,20.6997 5.2285,12.1187"/>
    <path fill="#7564A8" d="M5.2285,12.1187 C4.5585,14.2477 4.0755,16.1937 3.7595,18.2297 C4.5855,21.4947 6.1225,24.5607 8.1415,27.1127 C9.0905,25.8707 10.2205,25.0027 11.1875,23.6337 C8.4005,20.2877 6.2355,16.1967 5.2285,12.1187"/>
    <path fill="#6D5BA2" d="M12.3486,29.4902 C14.5926,29.4902 16.5796,29.2482 18.2936,28.7792 C18.5826,26.8442 18.5196,24.9442 18.3196,23.1332 C16.8336,24.0582 14.5546,24.4502 11.8596,24.4502 C11.4106,24.4502 10.9836,24.4272 10.5776,24.3822 C9.5406,25.6112 8.4046,26.4962 7.5316,27.9632 C7.3286,28.3032 7.1436,28.6722 6.9856,29.0582 C8.5356,29.3432 10.3136,29.4902 12.3486,29.4902"/>
    <path fill="#66539E" d="M11.8916,24.4502 L11.8726,24.4502 C7.1556,24.4502 4.8136,21.9272 3.7746,18.1412 C3.7696,18.1692 3.7646,18.1972 3.7606,18.2252 C3.7596,18.2272 3.7596,18.2282 3.7596,18.2302 C4.8556,22.5602 7.1986,26.5392 10.2636,29.4322 C10.9306,29.4712 11.6296,29.4902 12.3626,29.4902 C14.1776,29.4902 15.8246,29.3312 17.2936,29.0222 C15.3716,27.8552 13.5376,26.2842 11.8916,24.4502"/>
  </g>
</svg>
