<svg width="48" height="48" viewBox="0 0 48 48" fill="none" xmlns="http://www.w3.org/2000/svg">
<rect width="14" height="14" fill="black" fill-opacity="0" transform="translate(3 3) scale(3)"/>
<rect x="3" y="3" width="42" height="42" fill="#6E6E6E"/>
<rect x="24" y="39" width="18" height="3" fill="white"/>
<path d="M9 12L18 21L9 30" stroke="white" stroke-width="2"/>
<rect width="5" height="8" fill="black" fill-opacity="0" transform="translate(27 9) scale(3)"/>
<path fill-rule="evenodd" clip-rule="evenodd" d="M35.1631 9C33.4787 9.61961 31.8527 11.4281 30.2851 14.4254C27.9336 18.9214 24.8966 25.3104 29.0786 30.3688C31.0133 32.709 34.2077 34.0902 38.3999 31.9027C41.7677 30.1454 42.7043 25.1024 41.4952 22.7326C39.0011 17.8442 36.4708 16.6385 35.7932 13.6069C35.3415 11.5859 35.1314 10.0502 35.1631 9Z" fill="#460075"/>
</svg>
